#!OML:ASF E:/inclinewalkrobotboard/Project1/Captureday1/Session1/subject1.ASF
:FULLY-SPECIFIED
:DEGREES
251
root 0 0 0 -1.837661276670576 -6.160994483799465 -7.485376389157679
lowerback 8.517108081953314 2.948603280932917 5.980243425734437
upperback -0.02032274098583628 4.572692441325348 0.9945782011615394
thorax -4.652319333466267 2.1378881690649756 -2.8896677731461935
lowerneck -13.370777762822566 -3.3406656037078966 -1.6112929286230182
upperneck 12.661511869517026 -4.729213198129294 3.22371923305621
head 6.050591778789414 -2.1615961333508773 0.8611703107326514
rclavicle -4.006299761940097E-15 -1.2914137412536993E-15
rhumerus -30.635936374806008 -17.056669912822116 -84.2516559991252
rradius 21.403683708214153
rwrist 15.064582815336202
rhand -19.20186857142266 30.850778033446545
rfingers 7.1250199999999975
rthumb 7.1263360813474685 0.77659573647108
lclavicle -5.0723661126979855E-15 -1.0848716088197208E-15
lhumerus -35.09067884223634 8.480616759290958 79.79240462098112
lradius 16.040954635881487
lwrist -1.8705546882575566
lhand -27.096845412845077 27.14975938308031
lfingers 7.125019999999985
lthumb -0.5623852803116822 57.209420846196394
rfemur -9.41072089451427 5.719507667837515 29.139639759095346
rtibia 39.0810072259255
rfoot -9.964836189507526 -6.063499924599265
rtoes 5.191358206524648
lfemur -20.242264858096433 0.588404039284868 -16.517626613875578
ltibia 38.960494003097494
lfoot -1.2737103432476502 -4.835566498428731
ltoes -3.96090933684113
252
root 0 0 0 -1.873475541250423 -6.1477440777897545 -7.401678337238346
lowerback 8.564859914302708 2.9693556376728263 5.874032300490482
upperback 6.698873814679762E-4 4.5883160291000635 0.9740844246973186
thorax -4.656117211910825 2.1494331423108166 -2.8517588689054754
lowerneck -13.238294497108226 -3.3859874660673595 -1.6386067897962826
upperneck 12.666875694334411 -4.801200176827557 3.3354542239740717
head 6.037494108992095 -2.191082409832537 0.8975484165388818
rclavicle -3.7580292081311335E-15 -1.440574771449924E-15
rhumerus -30.695365673635322 -17.061878437731053 -84.21444218219375
rradius 21.10998074542296
rwrist 14.715013626732077
rhand -19.098110982750114 30.843510156730993
rfingers 7.125019999999998
rthumb 7.225162648382575 0.7817376952116106
lclavicle -4.8526101061425914E-15 -1.1283698848084175E-15
lhumerus -35.084030434970245 8.42848131164529 79.70386810275971
lradius 16.171329588613727
lwrist -1.7503642682001836
lhand -27.147731784641557 27.206902676622875
lfingers 7.125019999999986
lthumb -0.6108907881434558 57.27362861010457
rfemur -9.74586245225273 5.651558231349851 28.92631103366337
rtibia 39.151592897265616
rfoot -9.810823143255758 -6.10396100234768
rtoes 5.134536156248383
lfemur -19.80273811282238 0.4519933907326381 -16.74008339327634
ltibia 38.58578562927571
lfoot -1.5123808362846027 -4.74427390879066
ltoes -3.678058250928725
253
root 0 0 0 -1.9055643251294732 -6.131152661478485 -7.331960100384208
lowerback 8.626856985493744 2.98087695312728 5.783492001994381
upperback 0.030613999666938257 4.59435539440317 0.9624346490702174
thorax -4.658585856691555 2.155459617303205 -2.812935101831874
lowerneck -13.129248500670819 -3.423773246380489 -1.657496202554246
upperneck 12.698314421012846 -4.858963251278639 3.4136572514967396
head 6.0356987498524814 -2.2153124248481313 0.9220401238724798
rclavicle -3.55899537684719E-15 -1.530904529210082E-15
rhumerus -30.70419446886747 -17.117218664014445 -84.13587342987557
rradius 20.94459152829711
rwrist 14.419368682436659
rhand -19.034602465443236 30.827401105951473
rfingers 7.125019999999998
rthumb 7.285401984852943 0.7735264049329231
lclavicle -4.672376591139839E-15 -1.1584200328344496E-15
lhumerus -35.07221438251866 8.368244322015176 79.64582171856573
lradius 16.295437206422445
lwrist -1.6393818306551302
lhand -27.1873384204398 27.255245926099683
lfingers 7.125019999999987
lthumb -0.6484947860180927 57.32718726704728
rfemur -10.110398015676743 5.572864345001899 28.73402185262792
rtibia 39.39063224912783
rfoot -9.606434111788506 -6.13734322962436
rtoes 5.1377699701833075
lfemur -19.392433943839848 0.318584236442192 -16.94411469050549
ltibia 38.25033145545096
lfoot -1.7229228149980305 -4.664509638666093
ltoes -3.405933901047298
254
root 0 0 0 -1.9372970184612592 -6.116369612672436 -7.270004380185378
lowerback 8.696099416448867 2.9853547069568305 5.706057050499755
upperback 0.069068813159014 4.592818347032761 0.9572126888987316
thorax -4.656035351767714 2.1572091072728234 -2.7740943179551905
lowerneck -13.039357497804467 -3.453965561352948 -1.6723586972292515
upperneck 12.74863796636522 -4.903000663228225 3.4674182445219732
head 6.041681848654077 -2.234238264165541 0.938445027883196
rclavicle -3.4067404904196453E-15 -1.5806168046416809E-15
rhumerus -30.68390826657021 -17.192047271164157 -84.04198584143863
rradius 20.876377403462506
rwrist 14.178790910181448
rhand -19.003541812925747 30.810883968437558
rfingers 7.125019999999999
rthumb 7.314582629054574 0.7610507382742853
lclavicle -4.532219036337767E-15 -1.1820344114935574E-15
lhumerus -35.05545354051082 8.303964683901544 79.6100297982519
lradius 16.41053355310361
lwrist -1.5376900835279232
lhand -27.219127975014217 27.298153267712635
lfingers 7.125019999999988
lthumb -0.6785982738043739 57.373916584770726
rfemur -10.476733668230825 5.496111982806502 28.571325963562465
rtibia 39.70224769021523
rfoot -9.396910535996476 -6.170232317755733
rtoes 5.168246199507926
lfemur -19.01588793577505 0.18165150205260971 -17.126661201661506
ltibia 37.935733959967
lfoot -1.9194517493110492 -4.581287428578314
ltoes -3.1564746219472575
255
root 0 0 0 -1.969319507379696 -6.1046655853159475 -7.212224605334848
lowerback 8.76993551022163 2.9843339912926283 5.639244297414935
upperback 0.11552864913198754 4.585162244157832 0.9563334694934494
thorax -4.647397694482683 2.1555396012289894 -2.736019087620283
lowerneck -12.96493919053614 -3.47738970236034 -1.6854964936468624
upperneck 12.810444633603916 -4.935008082699646 3.5029837206997643
head 6.0522178044016774 -2.2484418382669644 0.9491940613588763
rclavicle -3.290908101755415E-15 -1.6066709299245647E-15
rhumerus -30.643317455493104 -17.270080407402194 -83.94530708346247
rradius 20.88431057113587
rwrist 13.993582771018133
rhand -18.998763991689003 30.79962507930272
rfingers 7.12502
rthumb 7.318637901909494 0.7506301233049868
lclavicle -4.425249122292525E-15 -1.2033899126618694E-15
lhumerus -35.03482722114586 8.238509874178215 79.58821577480148
lradius 16.516927203828466
lwrist -1.443732837166325
lhand -27.24620022338714 27.33797178570307
lfingers 7.125019999999988
lthumb -0.7042118520502134 57.41664204513501
rfemur -10.828449398195907 5.427069341728263 28.434163099380093
rtibia 40.017391582460846
rfoot -9.206286691594311 -6.205456609106197
rtoes 5.20210544160804
lfemur -18.66180166483656 0.034733685323973695 -17.29287969635991
ltibia 37.62167530818127
lfoot -2.116837818090291 -4.484472741939628
ltoes -2.928751878558952
256
root 0 0 0 -2.001885697757337 -6.095855706459304 -7.155998769538729
lowerback 8.84762292422704 2.9786823740265107 5.580586024301291
upperback 0.16982349163483462 4.572117541652804 0.958383060012465
thorax -4.632374295420502 2.1509041636084936 -2.6988036760829117
lowerneck -12.903327188520834 -3.495025225743719 -1.6982725857206793
upperneck 12.879368747787735 -4.956733175703558 3.5244369684251913
head 6.0653640393947725 -2.258592068225818 0.9557969676888896
rclavicle -3.201062896316718E-15 -1.622622267920831E-15
rhumerus -30.58422445999883 -17.34701596669328 -83.84918613371804
rradius 20.955585731282987
rwrist 13.863497702045667
rhand -19.016295709124794 30.796075769816326
rfingers 7.12502
rthumb 7.301387266964525 0.7452073589883099
lclavicle -4.343549331630964E-15 -1.225898597789861E-15
lhumerus -35.0114795254175 8.173496905712861 79.57401022212066
lradius 16.616276454862554
lwrist -1.3554878027581174
lhand -27.270819134220513 27.37615963641261
lfingers 7.125019999999989
lthumb -0.7275246839474088 57.45720904805829
rfemur -11.159035486987182 5.366294033934162 28.312354737110496
rtibia 40.29807574072342
rfoot -9.041104203918735 -6.24304912434715
rtoes 5.2261700796239765
lfemur -18.311688803088966 -0.12823149735480843 -17.451432166394373
ltibia 37.2905708259059
lfoot -2.3275430473896392 -4.368291985929943
ltoes -2.714550437865949
